<svg xmlns="http://www.w3.org/2000/svg" width="20.5" height="20.5" viewBox="0 0 20.5 20.5">
  <g id="noun_add_4293017" transform="translate(-1.75 -1.75)">
    <g id="Group_55664" data-name="Group 55664" transform="translate(0 -290.65)">
      <path id="Path_157023" data-name="Path 157023" d="M12,292.65a10,10,0,1,0,10,10A10.015,10.015,0,0,0,12,292.65Zm0,2a8,8,0,1,1-8,8A7.985,7.985,0,0,1,12,294.65Z" fill="#0027ff" stroke="#fcfcff" stroke-width="0.5"/>
      <path id="Path_157024" data-name="Path 157024" d="M12,297.65a1,1,0,0,0-1,1v3H8a1,1,0,0,0,0,2h3v3a1,1,0,0,0,2,0v-3h3a1,1,0,0,0,0-2H13v-3A1,1,0,0,0,12,297.65Z" fill="#0027ff" stroke="#fcfcff" stroke-width="0.5"/>
    </g>
  </g>
</svg>
