<svg id="Group_55078" data-name="Group 55078" xmlns="http://www.w3.org/2000/svg" width="38" height="38" viewBox="0 0 38 38">
  <g id="Group_26587" data-name="Group 26587">
    <g id="Rectangle_7954" data-name="Rectangle 7954" fill="none" stroke="#15ad2c" stroke-width="1">
      <rect width="38" height="38" rx="4" stroke="none"/>
      <rect x="0.5" y="0.5" width="37" height="37" rx="3.5" fill="none"/>
    </g>
  </g>
  <path id="Subtraction_11" data-name="Subtraction 11" d="M17.226,25.24H-1v-7.2a5.251,5.251,0,0,1,5.17-5.316h7.886a5.251,5.251,0,0,1,5.17,5.316v2H13.9l.765-.835a.656.656,0,0,0-.025-.91.609.609,0,0,0-.43-.178.617.617,0,0,0-.455.2l-1.847,2.013a.652.652,0,0,0,0,.884l1.847,2.013a.715.715,0,0,0,.484.2.546.546,0,0,0,.4-.173.664.664,0,0,0,.025-.911l-.922-1.006h3.482v3.895ZM8.113,11.178A5.52,5.52,0,0,1,2.677,5.59,5.52,5.52,0,0,1,8.113,0,5.519,5.519,0,0,1,13.548,5.59,5.519,5.519,0,0,1,8.113,11.178Z" transform="translate(10.887 6.379)" fill="#05bc28"/>
</svg>
